<?xml version="1.0" encoding="UTF-8" standalone="no"?>
<!-- Generator: Adobe Illustrator 19.0.0, SVG Export Plug-In . SVG Version: 6.00 Build 0)  -->

<svg
   xmlns:dc="http://purl.org/dc/elements/1.1/"
   xmlns:cc="http://creativecommons.org/ns#"
   xmlns:rdf="http://www.w3.org/1999/02/22-rdf-syntax-ns#"
   xmlns:svg="http://www.w3.org/2000/svg"
   xmlns="http://www.w3.org/2000/svg"
   xmlns:xlink="http://www.w3.org/1999/xlink"
   xmlns:sodipodi="http://sodipodi.sourceforge.net/DTD/sodipodi-0.dtd"
   xmlns:inkscape="http://www.inkscape.org/namespaces/inkscape"
   version="1.1"
   id="Capa_1"
   x="0px"
   y="0px"
   viewBox="31 -31 512 512"
   style="enable-background:new 31 -31 512 512;"
   xml:space="preserve"
   sodipodi:docname="community-end.svg"
   inkscape:version="0.92.5 (2060ec1f9f, 2020-04-08)"><metadata
   id="metadata504"><rdf:RDF><cc:Work
       rdf:about=""><dc:format>image/svg+xml</dc:format><dc:type
         rdf:resource="http://purl.org/dc/dcmitype/StillImage" /><dc:title></dc:title></cc:Work></rdf:RDF></metadata><defs
   id="defs502" /><sodipodi:namedview
   pagecolor="#ffffff"
   bordercolor="#666666"
   borderopacity="1"
   objecttolerance="10"
   gridtolerance="10"
   guidetolerance="10"
   inkscape:pageopacity="0"
   inkscape:pageshadow="2"
   inkscape:window-width="1848"
   inkscape:window-height="1016"
   id="namedview500"
   showgrid="false"
   inkscape:zoom="1.3037281"
   inkscape:cx="133.14289"
   inkscape:cy="259.49843"
   inkscape:window-x="72"
   inkscape:window-y="27"
   inkscape:window-maximized="1"
   inkscape:current-layer="g489" />
<style
   type="text/css"
   id="style2">
	.st0{opacity:0.2;fill:#1E1A21;enable-background:new    ;}
	.st1{fill:none;stroke:url(#SVGID_1_);stroke-width:3;stroke-linecap:round;stroke-linejoin:round;stroke-miterlimit:10;}
	.st2{fill:url(#XMLID_2_);}
	.st3{fill:url(#XMLID_3_);}
	.st4{fill:url(#XMLID_4_);}
	.st5{clip-path:url(#XMLID_6_);fill:url(#XMLID_7_);}
	.st6{clip-path:url(#XMLID_6_);fill:url(#XMLID_8_);}
	.st7{clip-path:url(#XMLID_6_);fill:url(#XMLID_9_);}
	.st8{clip-path:url(#XMLID_6_);fill:url(#XMLID_10_);}
	.st9{clip-path:url(#XMLID_6_);fill:url(#XMLID_11_);}
	.st10{clip-path:url(#XMLID_6_);fill:url(#XMLID_12_);}
	.st11{clip-path:url(#XMLID_6_);fill:url(#XMLID_13_);}
	.st12{clip-path:url(#XMLID_6_);fill:url(#XMLID_14_);}
	.st13{opacity:0.5;fill:none;stroke:#0053FB;stroke-width:2;stroke-miterlimit:10;}
	.st14{fill:url(#XMLID_15_);}
	.st15{fill:url(#XMLID_16_);}
	.st16{fill:url(#XMLID_17_);}
	.st17{fill:url(#XMLID_18_);}
	.st18{fill:url(#XMLID_19_);}
	.st19{fill:url(#XMLID_21_);}
	.st20{fill:url(#XMLID_22_);}
	.st21{fill:url(#XMLID_23_);}
	.st22{fill:url(#XMLID_24_);}
	.st23{fill:url(#XMLID_25_);}
	.st24{fill:url(#XMLID_26_);}
	.st25{fill:url(#XMLID_27_);}
	.st26{fill:url(#XMLID_28_);}
	.st27{fill:url(#XMLID_29_);}
	.st28{fill:url(#SVGID_2_);}
	.st29{fill:url(#SVGID_3_);}
	.st30{fill:url(#SVGID_4_);}
	.st31{fill:url(#SVGID_5_);}
	.st32{fill:url(#SVGID_6_);}
	.st33{fill:url(#SVGID_7_);}
	.st34{opacity:0.25;fill:url(#SVGID_8_);enable-background:new    ;}
	.st35{fill:url(#SVGID_9_);}
	.st36{fill:url(#SVGID_10_);}
	.st37{opacity:0.6;fill:url(#SVGID_11_);enable-background:new    ;}
	.st38{fill:url(#SVGID_12_);}
	.st39{fill:url(#SVGID_13_);}
	.st40{fill:url(#SVGID_14_);}
	.st41{fill:url(#SVGID_15_);}
	.st42{fill:url(#SVGID_16_);}
	.st43{fill:#3D20B7;}
	.st44{fill:url(#SVGID_17_);}
	.st45{fill:url(#SVGID_18_);}
	.st46{opacity:0.5;}
	.st47{fill:none;stroke:#0053FB;stroke-miterlimit:10;}
</style>
<path
   class="st0"
   d="M149.6,393.5c0,0-5,2.4,0.8,8.8c5.7,6.3,126.7,72.9,126.7,72.9s10,5.2,17.4,0l110.2-64.6c0,0,2.8-4.2-3.1-7.1  l-126.5-73.3c0,0-6.4-5-14.9,0S149.6,393.5,149.6,393.5z"
   id="path4" />
<linearGradient
   id="SVGID_1_"
   gradientUnits="userSpaceOnUse"
   x1="228.8"
   y1="38.5751"
   x2="228.8"
   y2="38.5751"
   gradientTransform="matrix(1 0 0 -1 0 450)">
	<stop
   offset="2.945171e-007"
   style="stop-color:#3F00FC"
   id="stop6" />
	<stop
   offset="0.2077"
   style="stop-color:#3F02F7"
   id="stop8" />
	<stop
   offset="0.4672"
   style="stop-color:#3E09E7"
   id="stop10" />
	<stop
   offset="0.7531"
   style="stop-color:#3E14CE"
   id="stop12" />
	<stop
   offset="1"
   style="stop-color:#3D20B2"
   id="stop14" />
</linearGradient>
<path
   class="st1"
   d="M228.8,411.4"
   id="path17" />
<linearGradient
   id="XMLID_2_"
   gradientUnits="userSpaceOnUse"
   x1="253.4446"
   y1="-16381.1504"
   x2="320.5623"
   y2="-16130.6641"
   gradientTransform="matrix(1 0 0 -1 0 -15934)">
	<stop
   offset="0"
   style="stop-color:#4F3E90"
   id="stop19" />
	<stop
   offset="1"
   style="stop-color:#171A31"
   id="stop21" />
</linearGradient>
<polygon
   id="XMLID_20_"
   class="st2"
   points="171,389.1 171,254.8 286.6,187.6 403,254.7 403,389.1 287.4,456.2 " />
<linearGradient
   id="XMLID_3_"
   gradientUnits="userSpaceOnUse"
   x1="270.2372"
   y1="-16251.3096"
   x2="303.7698"
   y2="-16126.1641"
   gradientTransform="matrix(1 0 0 -1 0 -15934)">
	<stop
   offset="0"
   style="stop-color:#4F3E90"
   id="stop25" />
	<stop
   offset="1"
   style="stop-color:#171A31"
   id="stop27" />
</linearGradient>
<polygon
   id="XMLID_49_"
   class="st3"
   points="286.6,187.6 403,254.7 287.4,321.9 171,254.8 " />
<linearGradient
   id="XMLID_4_"
   gradientUnits="userSpaceOnUse"
   x1="323.8822"
   y1="-16209.9326"
   x2="366.5174"
   y2="-16369.0488"
   gradientTransform="matrix(1 0 0 -1 0 -15934)">
	<stop
   offset="0"
   style="stop-color:#4F3E90"
   id="stop31" />
	<stop
   offset="1"
   style="stop-color:#171A31"
   id="stop33" />
</linearGradient>
<polygon
   id="XMLID_50_"
   class="st4"
   points="287.4,456.2 287.4,321.9 403,254.7 403,389.1 " />
<g
   id="XMLID_97_">
	<defs
   id="defs38">
		<polygon
   id="XMLID_98_"
   points="285.4,209.7 353.9,249.3 285.8,288.8 217.2,249.3   " />
	</defs>
	<linearGradient
   id="XMLID_5_"
   gradientUnits="userSpaceOnUse"
   x1="217.2461"
   y1="249.2616"
   x2="353.9056"
   y2="249.2616">
		<stop
   offset="1.916698e-007"
   style="stop-color:#7F00FF;stop-opacity:0.4"
   id="stop40" />
		<stop
   offset="1"
   style="stop-color:#3D00FF;stop-opacity:0.6"
   id="stop42" />
	</linearGradient>
	<use
   xlink:href="#XMLID_98_"
   style="overflow:visible;fill:url(#XMLID_5_);"
   id="use45" />
	<clipPath
   id="XMLID_6_">
		<use
   xlink:href="#XMLID_98_"
   style="overflow:visible;"
   id="use47" />
	</clipPath>
	
		<linearGradient
   id="XMLID_7_"
   gradientUnits="userSpaceOnUse"
   x1="275.6674"
   y1="-16158.7256"
   x2="295.4816"
   y2="-16232.6729"
   gradientTransform="matrix(1 0 0 -1 0 -15934)">
		<stop
   offset="1.916698e-007"
   style="stop-color:#7F00FF;stop-opacity:0.4"
   id="stop50" />
		<stop
   offset="1"
   style="stop-color:#3D00FF;stop-opacity:0.6"
   id="stop52" />
	</linearGradient>
	<polygon
   id="XMLID_109_"
   class="st5"
   points="285.4,222.1 353.9,261.7 285.8,301.3 217.2,261.7  "
   clip-path="url(#XMLID_6_)" />
	
		<linearGradient
   id="XMLID_8_"
   gradientUnits="userSpaceOnUse"
   x1="275.6674"
   y1="-16170.9316"
   x2="295.4816"
   y2="-16244.8789"
   gradientTransform="matrix(1 0 0 -1 0 -15934)">
		<stop
   offset="1.916698e-007"
   style="stop-color:#7F00FF;stop-opacity:0.4"
   id="stop56" />
		<stop
   offset="1"
   style="stop-color:#3D00FF;stop-opacity:0.6"
   id="stop58" />
	</linearGradient>
	<polygon
   id="XMLID_108_"
   class="st6"
   points="285.4,234.3 353.9,273.9 285.8,313.5 217.2,273.9  "
   clip-path="url(#XMLID_6_)" />
	
		<linearGradient
   id="XMLID_9_"
   gradientUnits="userSpaceOnUse"
   x1="275.6674"
   y1="-16183.1377"
   x2="295.4816"
   y2="-16257.085"
   gradientTransform="matrix(1 0 0 -1 0 -15934)">
		<stop
   offset="1.916698e-007"
   style="stop-color:#7F00FF;stop-opacity:0.4"
   id="stop62" />
		<stop
   offset="1"
   style="stop-color:#3D00FF;stop-opacity:0.6"
   id="stop64" />
	</linearGradient>
	<polygon
   id="XMLID_107_"
   class="st7"
   points="285.4,246.5 353.9,286.1 285.8,325.7 217.2,286.1  "
   clip-path="url(#XMLID_6_)" />
	
		<linearGradient
   id="XMLID_10_"
   gradientUnits="userSpaceOnUse"
   x1="275.6674"
   y1="-16195.3438"
   x2="295.4816"
   y2="-16269.291"
   gradientTransform="matrix(1 0 0 -1 0 -15934)">
		<stop
   offset="1.916698e-007"
   style="stop-color:#7F00FF;stop-opacity:0.4"
   id="stop68" />
		<stop
   offset="1"
   style="stop-color:#3D00FF;stop-opacity:0.6"
   id="stop70" />
	</linearGradient>
	<polygon
   id="XMLID_105_"
   class="st8"
   points="285.4,258.7 353.9,298.3 285.8,337.9 217.2,298.3  "
   clip-path="url(#XMLID_6_)" />
	
		<linearGradient
   id="XMLID_11_"
   gradientUnits="userSpaceOnUse"
   x1="275.6674"
   y1="-16207.5488"
   x2="295.4816"
   y2="-16281.4961"
   gradientTransform="matrix(1 0 0 -1 0 -15934)">
		<stop
   offset="1.916698e-007"
   style="stop-color:#7F00FF;stop-opacity:0.4"
   id="stop74" />
		<stop
   offset="1"
   style="stop-color:#3D00FF;stop-opacity:0.6"
   id="stop76" />
	</linearGradient>
	<polygon
   id="XMLID_104_"
   class="st9"
   points="285.4,271 353.9,310.5 285.8,350.1 217.2,310.5  "
   clip-path="url(#XMLID_6_)" />
	
		<linearGradient
   id="XMLID_12_"
   gradientUnits="userSpaceOnUse"
   x1="275.6674"
   y1="-16219.7549"
   x2="295.4816"
   y2="-16293.7021"
   gradientTransform="matrix(1 0 0 -1 0 -15934)">
		<stop
   offset="1.916698e-007"
   style="stop-color:#7F00FF;stop-opacity:0.4"
   id="stop80" />
		<stop
   offset="1"
   style="stop-color:#3D00FF;stop-opacity:0.6"
   id="stop82" />
	</linearGradient>
	<polygon
   id="XMLID_103_"
   class="st10"
   points="285.4,283.2 353.9,322.7 285.8,362.3 217.2,322.7  "
   clip-path="url(#XMLID_6_)" />
	
		<linearGradient
   id="XMLID_13_"
   gradientUnits="userSpaceOnUse"
   x1="275.6674"
   y1="-16231.9609"
   x2="295.4816"
   y2="-16305.9082"
   gradientTransform="matrix(1 0 0 -1 0 -15934)">
		<stop
   offset="1.916698e-007"
   style="stop-color:#7F00FF;stop-opacity:0.4"
   id="stop86" />
		<stop
   offset="1"
   style="stop-color:#3D00FF;stop-opacity:0.6"
   id="stop88" />
	</linearGradient>
	<polygon
   id="XMLID_101_"
   class="st11"
   points="285.4,295.4 353.9,334.9 285.8,374.5 217.2,334.9  "
   clip-path="url(#XMLID_6_)" />
	
		<linearGradient
   id="XMLID_14_"
   gradientUnits="userSpaceOnUse"
   x1="275.6674"
   y1="-16244.167"
   x2="295.4816"
   y2="-16318.1143"
   gradientTransform="matrix(1 0 0 -1 0 -15934)">
		<stop
   offset="1.916698e-007"
   style="stop-color:#7F00FF;stop-opacity:0.4"
   id="stop92" />
		<stop
   offset="1"
   style="stop-color:#3D00FF;stop-opacity:0.6"
   id="stop94" />
	</linearGradient>
	<polygon
   id="XMLID_100_"
   class="st12"
   points="285.4,307.6 353.9,347.1 285.8,386.7 217.2,347.2  "
   clip-path="url(#XMLID_6_)" />
</g>
<polyline
   id="XMLID_56_"
   class="st13"
   points="362.1,278.5 362.1,361 338.1,376.9 338.1,426.8 " />
<linearGradient
   id="XMLID_15_"
   gradientUnits="userSpaceOnUse"
   x1="297.037"
   y1="-16200.8379"
   x2="298.5721"
   y2="-16200.8379"
   gradientTransform="matrix(1 0 0 -1 0 -15934)">
	<stop
   offset="2.945171e-007"
   style="stop-color:#3F00FC"
   id="stop100" />
	<stop
   offset="0.2077"
   style="stop-color:#3F02F7"
   id="stop102" />
	<stop
   offset="0.4672"
   style="stop-color:#3E09E7"
   id="stop104" />
	<stop
   offset="0.7531"
   style="stop-color:#3E14CE"
   id="stop106" />
	<stop
   offset="1"
   style="stop-color:#3D20B2"
   id="stop108" />
</linearGradient>
<circle
   id="XMLID_304_"
   class="st14"
   cx="297.8"
   cy="266.8"
   r="0.8" />
<linearGradient
   id="XMLID_16_"
   gradientUnits="userSpaceOnUse"
   x1="251.4831"
   y1="-16096.9717"
   x2="253.0182"
   y2="-16096.9717"
   gradientTransform="matrix(1 0 0 -1 0 -15934)">
	<stop
   offset="2.945171e-007"
   style="stop-color:#3F00FC"
   id="stop112" />
	<stop
   offset="0.2077"
   style="stop-color:#3F02F7"
   id="stop114" />
	<stop
   offset="0.4672"
   style="stop-color:#3E09E7"
   id="stop116" />
	<stop
   offset="0.7531"
   style="stop-color:#3E14CE"
   id="stop118" />
	<stop
   offset="1"
   style="stop-color:#3D20B2"
   id="stop120" />
</linearGradient>
<circle
   id="XMLID_302_"
   class="st15"
   cx="252.3"
   cy="163"
   r="0.8" />
<linearGradient
   id="XMLID_17_"
   gradientUnits="userSpaceOnUse"
   x1="345.3911"
   y1="-16026.5049"
   x2="348.9645"
   y2="-16026.5049"
   gradientTransform="matrix(1 0 0 -1 0 -15934)">
	<stop
   offset="2.945171e-007"
   style="stop-color:#3F00FC"
   id="stop124" />
	<stop
   offset="0.2077"
   style="stop-color:#3F02F7"
   id="stop126" />
	<stop
   offset="0.4672"
   style="stop-color:#3E09E7"
   id="stop128" />
	<stop
   offset="0.7531"
   style="stop-color:#3E14CE"
   id="stop130" />
	<stop
   offset="1"
   style="stop-color:#3D20B2"
   id="stop132" />
</linearGradient>
<circle
   id="XMLID_37_"
   class="st16"
   cx="347.2"
   cy="92.5"
   r="1.8" />
<linearGradient
   id="XMLID_18_"
   gradientUnits="userSpaceOnUse"
   x1="365.2146"
   y1="-15946.5"
   x2="366.6652"
   y2="-15946.5"
   gradientTransform="matrix(1 0 0 -1 0 -15934)">
	<stop
   offset="2.945171e-007"
   style="stop-color:#3F00FC"
   id="stop136" />
	<stop
   offset="0.2077"
   style="stop-color:#3F02F7"
   id="stop138" />
	<stop
   offset="0.4672"
   style="stop-color:#3E09E7"
   id="stop140" />
	<stop
   offset="0.7531"
   style="stop-color:#3E14CE"
   id="stop142" />
	<stop
   offset="1"
   style="stop-color:#3D20B2"
   id="stop144" />
</linearGradient>
<circle
   id="XMLID_43_"
   class="st17"
   cx="365.9"
   cy="12.5"
   r="0.7" />
<linearGradient
   id="XMLID_19_"
   gradientUnits="userSpaceOnUse"
   x1="236.4942"
   y1="-16021.9932"
   x2="240.0676"
   y2="-16021.9932"
   gradientTransform="matrix(1 0 0 -1 0 -15934)">
	<stop
   offset="2.945171e-007"
   style="stop-color:#3F00FC"
   id="stop148" />
	<stop
   offset="0.2077"
   style="stop-color:#3F02F7"
   id="stop150" />
	<stop
   offset="0.4672"
   style="stop-color:#3E09E7"
   id="stop152" />
	<stop
   offset="0.7531"
   style="stop-color:#3E14CE"
   id="stop154" />
	<stop
   offset="1"
   style="stop-color:#3D20B2"
   id="stop156" />
</linearGradient>
<circle
   id="XMLID_143_"
   class="st18"
   cx="238.3"
   cy="88"
   r="1.8" />
<linearGradient
   id="XMLID_21_"
   gradientUnits="userSpaceOnUse"
   x1="358.3285"
   y1="-16105.8711"
   x2="359.7791"
   y2="-16105.8711"
   gradientTransform="matrix(1 0 0 -1 0 -15934)">
	<stop
   offset="2.945171e-007"
   style="stop-color:#3F00FC"
   id="stop160" />
	<stop
   offset="0.2077"
   style="stop-color:#3F02F7"
   id="stop162" />
	<stop
   offset="0.4672"
   style="stop-color:#3E09E7"
   id="stop164" />
	<stop
   offset="0.7531"
   style="stop-color:#3E14CE"
   id="stop166" />
	<stop
   offset="1"
   style="stop-color:#3D20B2"
   id="stop168" />
</linearGradient>
<circle
   id="XMLID_142_"
   class="st19"
   cx="359.1"
   cy="171.9"
   r="0.7" />
<linearGradient
   id="XMLID_22_"
   gradientUnits="userSpaceOnUse"
   x1="284.6091"
   y1="-16039.6182"
   x2="286.5427"
   y2="-16039.6182"
   gradientTransform="matrix(1 0 0 -1 0 -15934)">
	<stop
   offset="2.945171e-007"
   style="stop-color:#3F00FC"
   id="stop172" />
	<stop
   offset="0.2077"
   style="stop-color:#3F02F7"
   id="stop174" />
	<stop
   offset="0.4672"
   style="stop-color:#3E09E7"
   id="stop176" />
	<stop
   offset="0.7531"
   style="stop-color:#3E14CE"
   id="stop178" />
	<stop
   offset="1"
   style="stop-color:#3D20B2"
   id="stop180" />
</linearGradient>
<circle
   id="XMLID_140_"
   class="st20"
   cx="285.6"
   cy="105.6"
   r="1" />
<linearGradient
   id="XMLID_23_"
   gradientUnits="userSpaceOnUse"
   x1="290.151"
   y1="-16160.208"
   x2="293.7244"
   y2="-16160.208"
   gradientTransform="matrix(1 0 0 -1 0 -15934)">
	<stop
   offset="2.945171e-007"
   style="stop-color:#3F00FC"
   id="stop184" />
	<stop
   offset="0.2077"
   style="stop-color:#3F02F7"
   id="stop186" />
	<stop
   offset="0.4672"
   style="stop-color:#3E09E7"
   id="stop188" />
	<stop
   offset="0.7531"
   style="stop-color:#3E14CE"
   id="stop190" />
	<stop
   offset="1"
   style="stop-color:#3D20B2"
   id="stop192" />
</linearGradient>
<circle
   id="XMLID_73_"
   class="st21"
   cx="291.9"
   cy="226.2"
   r="1.8" />
<linearGradient
   id="XMLID_24_"
   gradientUnits="userSpaceOnUse"
   x1="275.2558"
   y1="-16080.7832"
   x2="276.7064"
   y2="-16080.7832"
   gradientTransform="matrix(1 0 0 -1 0 -15934)">
	<stop
   offset="2.945171e-007"
   style="stop-color:#3F00FC"
   id="stop196" />
	<stop
   offset="0.2077"
   style="stop-color:#3F02F7"
   id="stop198" />
	<stop
   offset="0.4672"
   style="stop-color:#3E09E7"
   id="stop200" />
	<stop
   offset="0.7531"
   style="stop-color:#3E14CE"
   id="stop202" />
	<stop
   offset="1"
   style="stop-color:#3D20B2"
   id="stop204" />
</linearGradient>
<circle
   id="XMLID_72_"
   class="st22"
   cx="276"
   cy="146.8"
   r="0.7" />
<linearGradient
   id="XMLID_25_"
   gradientUnits="userSpaceOnUse"
   x1="267.2674"
   y1="-16189.3936"
   x2="269.201"
   y2="-16189.3936"
   gradientTransform="matrix(1 0 0 -1 0 -15934)">
	<stop
   offset="2.945171e-007"
   style="stop-color:#3F00FC"
   id="stop208" />
	<stop
   offset="0.2077"
   style="stop-color:#3F02F7"
   id="stop210" />
	<stop
   offset="0.4672"
   style="stop-color:#3E09E7"
   id="stop212" />
	<stop
   offset="0.7531"
   style="stop-color:#3E14CE"
   id="stop214" />
	<stop
   offset="1"
   style="stop-color:#3D20B2"
   id="stop216" />
</linearGradient>
<circle
   id="XMLID_71_"
   class="st23"
   cx="268.2"
   cy="255.4"
   r="1" />
<linearGradient
   id="XMLID_26_"
   gradientUnits="userSpaceOnUse"
   x1="315.7991"
   y1="-16137.8779"
   x2="317.7327"
   y2="-16137.8779"
   gradientTransform="matrix(1 0 0 -1 0 -15934)">
	<stop
   offset="2.945171e-007"
   style="stop-color:#3F00FC"
   id="stop220" />
	<stop
   offset="0.2077"
   style="stop-color:#3F02F7"
   id="stop222" />
	<stop
   offset="0.4672"
   style="stop-color:#3E09E7"
   id="stop224" />
	<stop
   offset="0.7531"
   style="stop-color:#3E14CE"
   id="stop226" />
	<stop
   offset="1"
   style="stop-color:#3D20B2"
   id="stop228" />
</linearGradient>
<circle
   id="XMLID_70_"
   class="st24"
   cx="316.8"
   cy="203.9"
   r="1" />
<linearGradient
   id="XMLID_27_"
   gradientUnits="userSpaceOnUse"
   x1="250.464"
   y1="-15928.8623"
   x2="254.0374"
   y2="-15928.8623"
   gradientTransform="matrix(1 0 0 -1 0 -15934)">
	<stop
   offset="2.945171e-007"
   style="stop-color:#3F00FC"
   id="stop232" />
	<stop
   offset="0.2077"
   style="stop-color:#3F02F7"
   id="stop234" />
	<stop
   offset="0.4672"
   style="stop-color:#3E09E7"
   id="stop236" />
	<stop
   offset="0.7531"
   style="stop-color:#3E14CE"
   id="stop238" />
	<stop
   offset="1"
   style="stop-color:#3D20B2"
   id="stop240" />
</linearGradient>
<circle
   id="XMLID_369_"
   class="st25"
   cx="252.3"
   cy="-5.1"
   r="1.8" />
<linearGradient
   id="XMLID_28_"
   gradientUnits="userSpaceOnUse"
   x1="288.3643"
   y1="-15987.5166"
   x2="291.9377"
   y2="-15987.5166"
   gradientTransform="matrix(1 0 0 -1 0 -15934)">
	<stop
   offset="2.945171e-007"
   style="stop-color:#3F00FC"
   id="stop244" />
	<stop
   offset="0.2077"
   style="stop-color:#3F02F7"
   id="stop246" />
	<stop
   offset="0.4672"
   style="stop-color:#3E09E7"
   id="stop248" />
	<stop
   offset="0.7531"
   style="stop-color:#3E14CE"
   id="stop250" />
	<stop
   offset="1"
   style="stop-color:#3D20B2"
   id="stop252" />
</linearGradient>
<circle
   id="XMLID_359_"
   class="st26"
   cx="290.2"
   cy="53.5"
   r="1.8" />
<linearGradient
   id="XMLID_29_"
   gradientUnits="userSpaceOnUse"
   x1="302.8279"
   y1="-15968.1338"
   x2="304.7615"
   y2="-15968.1338"
   gradientTransform="matrix(1 0 0 -1 0 -15934)">
	<stop
   offset="2.945171e-007"
   style="stop-color:#3F00FC"
   id="stop256" />
	<stop
   offset="0.2077"
   style="stop-color:#3F02F7"
   id="stop258" />
	<stop
   offset="0.4672"
   style="stop-color:#3E09E7"
   id="stop260" />
	<stop
   offset="0.7531"
   style="stop-color:#3E14CE"
   id="stop262" />
	<stop
   offset="1"
   style="stop-color:#3D20B2"
   id="stop264" />
</linearGradient>
<circle
   id="XMLID_358_"
   class="st27"
   cx="303.8"
   cy="34.1"
   r="1" />
<g
   id="g489">
	<path
   class="st0"
   d="M148.5,430.1c0,0-2.1,1,0.3,3.7c2.4,2.6,52.9,30.4,52.9,30.4s4.2,2.2,7.2,0l46-27c0,0,1.2-1.8-1.3-3   l-52.8-30.6c0,0-2.7-2.1-6.2,0C191,405.7,148.5,430.1,148.5,430.1z"
   id="path268" />
	
		<linearGradient
   id="SVGID_2_"
   gradientUnits="userSpaceOnUse"
   x1="147.6316"
   y1="29.7706"
   x2="255.1797"
   y2="29.7706"
   gradientTransform="matrix(1 0 0 -1 0 450)">
		<stop
   offset="0"
   style="stop-color:#4F3E90"
   id="stop270" />
		<stop
   offset="1"
   style="stop-color:#171A31"
   id="stop272" />
	</linearGradient>
	<path
   class="st28"
   d="M148.5,416.4c0,0-2.1,1,0.3,3.7c2.4,2.6,52.9,30.4,52.9,30.4s4.2,2.2,7.2,0l46-27c0,0,1.2-1.8-1.3-3   l-52.8-30.6c0,0-2.7-2.1-6.2,0C191,392,148.5,416.4,148.5,416.4z"
   id="path275" />
	
		<linearGradient
   id="SVGID_3_"
   gradientUnits="userSpaceOnUse"
   x1="147.6679"
   y1="12.2294"
   x2="255.3616"
   y2="12.2294"
   gradientTransform="matrix(1 0 0 -1 0 450)">
		<stop
   offset="0"
   style="stop-color:#463780"
   id="stop277" />
		<stop
   offset="0.1433"
   style="stop-color:#382E68"
   id="stop279" />
		<stop
   offset="0.3308"
   style="stop-color:#292550"
   id="stop281" />
		<stop
   offset="0.5289"
   style="stop-color:#1F1F3F"
   id="stop283" />
		<stop
   offset="0.7426"
   style="stop-color:#191B34"
   id="stop285" />
		<stop
   offset="1"
   style="stop-color:#171A31"
   id="stop287" />
	</linearGradient>
	<path
   class="st29"
   d="M147.7,423.9v-6.3c0,0-0.1,1.7,1.9,2.9c1.9,1.3,14.7,8.8,14.7,8.8l19.1,10.8l18.2,10.1c0,0,4,2.2,7.3,0.3   c3.2-1.9,46.2-27.1,46.2-27.1s0.4-0.5,0.3-1.5v6.8c0,0.6-0.3,1.1-0.8,1.4l-45.1,26.3c0,0-4.6,3.4-9.1-0.8l-51.8-30.3   C148,425.2,147.7,424.6,147.7,423.9L147.7,423.9z"
   id="path290" />
	
		<linearGradient
   id="SVGID_4_"
   gradientUnits="userSpaceOnUse"
   x1="147.6316"
   y1="44.686"
   x2="255.1797"
   y2="44.686"
   gradientTransform="matrix(1 0 0 -1 0 450)">
		<stop
   offset="0"
   style="stop-color:#4F3E90"
   id="stop292" />
		<stop
   offset="1"
   style="stop-color:#171A31"
   id="stop294" />
	</linearGradient>
	<path
   class="st30"
   d="M148.5,401.5c0,0-2.1,1,0.3,3.7c2.4,2.6,52.9,30.4,52.9,30.4s4.2,2.2,7.2,0l46-27c0,0,1.2-1.8-1.3-3   L200.8,375c0,0-2.7-2.1-6.2,0C191,377.1,148.5,401.5,148.5,401.5z"
   id="path297" />
	
		<linearGradient
   id="SVGID_5_"
   gradientUnits="userSpaceOnUse"
   x1="147.6679"
   y1="27.1449"
   x2="255.3616"
   y2="27.1449"
   gradientTransform="matrix(1 0 0 -1 0 450)">
		<stop
   offset="0"
   style="stop-color:#463780"
   id="stop299" />
		<stop
   offset="0.1433"
   style="stop-color:#382E68"
   id="stop301" />
		<stop
   offset="0.3308"
   style="stop-color:#292550"
   id="stop303" />
		<stop
   offset="0.5289"
   style="stop-color:#1F1F3F"
   id="stop305" />
		<stop
   offset="0.7426"
   style="stop-color:#191B34"
   id="stop307" />
		<stop
   offset="1"
   style="stop-color:#171A31"
   id="stop309" />
	</linearGradient>
	<path
   class="st31"
   d="M147.7,409v-6.3c0,0-0.1,1.7,1.9,2.9c1.9,1.3,14.7,8.8,14.7,8.8l19.1,10.8l18.2,10.1c0,0,4,2.2,7.3,0.3   c3.2-1.9,46.2-27.1,46.2-27.1s0.4-0.5,0.3-1.5v6.8c0,0.6-0.3,1.1-0.8,1.4l-45.1,26.3c0,0-4.6,3.4-9.1-0.8l-51.8-30.3   C148,410.2,147.7,409.7,147.7,409L147.7,409z"
   id="path312" />
	
		<linearGradient
   id="SVGID_6_"
   gradientUnits="userSpaceOnUse"
   x1="147.6316"
   y1="59.6015"
   x2="255.1797"
   y2="59.6015"
   gradientTransform="matrix(1 0 0 -1 0 450)">
		<stop
   offset="0"
   style="stop-color:#4F3E90"
   id="stop314" />
		<stop
   offset="1"
   style="stop-color:#171A31"
   id="stop316" />
	</linearGradient>
	<path
   class="st32"
   d="M148.5,386.5c0,0-2.1,1,0.3,3.7c2.4,2.6,52.9,30.4,52.9,30.4s4.2,2.2,7.2,0l46-27c0,0,1.2-1.8-1.3-3   l-52.8-30.6c0,0-2.7-2.1-6.2,0C191,362.2,148.5,386.5,148.5,386.5z"
   id="path319" />
	
		<linearGradient
   id="SVGID_7_"
   gradientUnits="userSpaceOnUse"
   x1="147.6679"
   y1="42.0603"
   x2="255.3616"
   y2="42.0603"
   gradientTransform="matrix(1 0 0 -1 0 450)">
		<stop
   offset="0"
   style="stop-color:#463780"
   id="stop321" />
		<stop
   offset="0.1433"
   style="stop-color:#382E68"
   id="stop323" />
		<stop
   offset="0.3308"
   style="stop-color:#292550"
   id="stop325" />
		<stop
   offset="0.5289"
   style="stop-color:#1F1F3F"
   id="stop327" />
		<stop
   offset="0.7426"
   style="stop-color:#191B34"
   id="stop329" />
		<stop
   offset="1"
   style="stop-color:#171A31"
   id="stop331" />
	</linearGradient>
	<path
   class="st33"
   d="M147.7,394.1v-6.3c0,0-0.1,1.7,1.9,2.9c1.9,1.3,14.7,8.8,14.7,8.8l19.1,10.8l18.2,10.1c0,0,4,2.2,7.3,0.3   s46.2-27.1,46.2-27.1s0.4-0.5,0.3-1.5v6.8c0,0.6-0.3,1.1-0.8,1.4l-45.1,26.3c0,0-4.6,3.4-9.1-0.8l-51.8-30.3   C148,395.3,147.7,394.7,147.7,394.1L147.7,394.1z"
   id="path334" />
	
		<linearGradient
   id="SVGID_8_"
   gradientUnits="userSpaceOnUse"
   x1="195.8362"
   y1="33.6315"
   x2="209.7751"
   y2="85.6519"
   gradientTransform="matrix(1 0 0 -1 0 450)">
		<stop
   offset="0"
   style="stop-color:#4F3E90;stop-opacity:0.6"
   id="stop336" />
		<stop
   offset="1"
   style="stop-color:#171ABF;stop-opacity:0.4"
   id="stop338" />
	</linearGradient>
	<path
   class="st34"
   d="M154.2,386.9c0,0-1.9,1,0.3,3.4s48.6,27.9,48.6,27.9s3.8,2,6.7,0l42.2-24.7c0,0,1.1-1.6-1.2-2.8l-48.5-28   c0,0-2.5-1.9-5.7,0C193.3,364.5,154.2,386.9,154.2,386.9z"
   id="path341" />
	<g
   id="g365">
		
			<linearGradient
   id="SVGID_9_"
   gradientUnits="userSpaceOnUse"
   x1="147.6316"
   y1="74.517"
   x2="255.1797"
   y2="74.517"
   gradientTransform="matrix(1 0 0 -1 0 450)">
			<stop
   offset="0"
   style="stop-color:#4F3E90"
   id="stop343" />
			<stop
   offset="1"
   style="stop-color:#171A31"
   id="stop345" />
		</linearGradient>
		<path
   class="st35"
   d="M148.5,371.6c0,0-2.1,1,0.3,3.7c2.4,2.6,52.9,30.4,52.9,30.4s4.2,2.2,7.2,0l46-27c0,0,1.2-1.8-1.3-3    l-52.8-30.6c0,0-2.7-2.1-6.2,0C191,347.3,148.5,371.6,148.5,371.6z"
   id="path348" />
		
			<linearGradient
   id="SVGID_10_"
   gradientUnits="userSpaceOnUse"
   x1="147.6679"
   y1="56.9758"
   x2="255.3616"
   y2="56.9758"
   gradientTransform="matrix(1 0 0 -1 0 450)">
			<stop
   offset="0"
   style="stop-color:#463780"
   id="stop350" />
			<stop
   offset="0.1433"
   style="stop-color:#382E68"
   id="stop352" />
			<stop
   offset="0.3308"
   style="stop-color:#292550"
   id="stop354" />
			<stop
   offset="0.5289"
   style="stop-color:#1F1F3F"
   id="stop356" />
			<stop
   offset="0.7426"
   style="stop-color:#191B34"
   id="stop358" />
			<stop
   offset="1"
   style="stop-color:#171A31"
   id="stop360" />
		</linearGradient>
		<path
   class="st36"
   d="M147.7,379.2v-6.3c0,0-0.1,1.7,1.9,2.9c1.9,1.3,14.7,8.8,14.7,8.8l19.1,10.8l18.2,10.1c0,0,4,2.2,7.3,0.3    c3.2-1.9,46.2-27.1,46.2-27.1s0.4-0.5,0.3-1.5v6.8c0,0.6-0.3,1.1-0.8,1.4l-45.1,26.3c0,0-4.6,3.4-9.1-0.8l-51.8-30.3    C148,380.4,147.7,379.8,147.7,379.2L147.7,379.2z"
   id="path363" />
	</g>
	
		<linearGradient
   id="SVGID_11_"
   gradientUnits="userSpaceOnUse"
   x1="171.6926"
   y1="70.1725"
   x2="242.1682"
   y2="70.1725"
   gradientTransform="matrix(1 0 0 -1 0 450)">
		<stop
   offset="0"
   style="stop-color:#463780"
   id="stop367" />
		<stop
   offset="0.1433"
   style="stop-color:#382E68"
   id="stop369" />
		<stop
   offset="0.3308"
   style="stop-color:#292550"
   id="stop371" />
		<stop
   offset="0.5289"
   style="stop-color:#1F1F3F"
   id="stop373" />
		<stop
   offset="0.7426"
   style="stop-color:#191B34"
   id="stop375" />
		<stop
   offset="1"
   style="stop-color:#171A31"
   id="stop377" />
	</linearGradient>
	
	<g
   id="g487">
		
			<linearGradient
   id="SVGID_12_"
   gradientUnits="userSpaceOnUse"
   x1="171.6926"
   y1="76.6714"
   x2="205.6427"
   y2="76.6714"
   gradientTransform="matrix(1 0 0 -1 0 450)">
			<stop
   offset="1.916698e-007"
   style="stop-color:#7F00FF"
   id="stop382" />
			<stop
   offset="0.4889"
   style="stop-color:#7D00FF"
   id="stop384" />
			<stop
   offset="0.665"
   style="stop-color:#7600FF"
   id="stop386" />
			<stop
   offset="0.7905"
   style="stop-color:#6B00FF"
   id="stop388" />
			<stop
   offset="0.892"
   style="stop-color:#5A00FF"
   id="stop390" />
			<stop
   offset="0.9779"
   style="stop-color:#4400FF"
   id="stop392" />
			<stop
   offset="1"
   style="stop-color:#3D00FF"
   id="stop394" />
		</linearGradient>
		<polygon
   class="st38"
   points="171.7,369.7 182.2,363.5 205.7,377 195.1,383.1   "
   id="polygon397" />
		
			<linearGradient
   id="SVGID_13_"
   gradientUnits="userSpaceOnUse"
   x1="195.1312"
   y1="66.5502"
   x2="217.3978"
   y2="66.5502"
   gradientTransform="matrix(1 0 0 -1 0 450)">
			<stop
   offset="2.945171e-007"
   style="stop-color:#3F00FC"
   id="stop399" />
			<stop
   offset="0.2077"
   style="stop-color:#3F02F7"
   id="stop401" />
			<stop
   offset="0.4672"
   style="stop-color:#3E09E7"
   id="stop403" />
			<stop
   offset="0.7531"
   style="stop-color:#3E14CE"
   id="stop405" />
			<stop
   offset="1"
   style="stop-color:#3D20B2"
   id="stop407" />
		</linearGradient>
		<polygon
   class="st39"
   points="217.4,383.8 205.6,377 195.1,383.2 206.8,389.9   "
   id="polygon410" />
		
			<linearGradient
   id="SVGID_14_"
   gradientUnits="userSpaceOnUse"
   x1="191.0235"
   y1="85.5267"
   x2="198.955"
   y2="55.9258"
   gradientTransform="matrix(1 0 0 -1 0 450)">
			<stop
   offset="2.945171e-007"
   style="stop-color:#851CB7"
   id="stop412" />
			<stop
   offset="1"
   style="stop-color:#3D20B7"
   id="stop414" />
		</linearGradient>
		<polygon
   class="st40"
   points="171.7,369.7 171.7,371.5 206.8,392 217.4,385.8 217.4,383.8 206.9,389.9   "
   id="polygon417" />
		
			<linearGradient
   id="SVGID_15_"
   gradientUnits="userSpaceOnUse"
   x1="187.0649"
   y1="87.3786"
   x2="202.5663"
   y2="87.3786"
   gradientTransform="matrix(1 0 0 -1 0 450)">
			<stop
   offset="2.945171e-007"
   style="stop-color:#3F00FC"
   id="stop419" />
			<stop
   offset="0.2077"
   style="stop-color:#3F02F7"
   id="stop421" />
			<stop
   offset="0.4672"
   style="stop-color:#3E09E7"
   id="stop423" />
			<stop
   offset="0.7531"
   style="stop-color:#3E14CE"
   id="stop425" />
			<stop
   offset="1"
   style="stop-color:#3D20B2"
   id="stop427" />
		</linearGradient>
		
		
			<linearGradient
   id="SVGID_16_"
   gradientUnits="userSpaceOnUse"
   x1="205.0393"
   y1="76.1654"
   x2="236.7347"
   y2="76.1654"
   gradientTransform="matrix(1 0 0 -1 0 450)">
			<stop
   offset="1.916698e-007"
   style="stop-color:#7F00FF"
   id="stop432" />
			<stop
   offset="0.2224"
   style="stop-color:#7A00FF"
   id="stop434" />
			<stop
   offset="0.5003"
   style="stop-color:#6A00FF"
   id="stop436" />
			<stop
   offset="0.8064"
   style="stop-color:#5100FF"
   id="stop438" />
			<stop
   offset="1"
   style="stop-color:#3D00FF"
   id="stop440" />
		</linearGradient>
		
		
		
		
			<linearGradient
   id="SVGID_17_"
   gradientUnits="userSpaceOnUse"
   x1="211.431"
   y1="64.6161"
   x2="212.7629"
   y2="59.6455"
   gradientTransform="matrix(1 0 0 -1 0 450)">
			<stop
   offset="2.945171e-007"
   style="stop-color:#3F00FC"
   id="stop449" />
			<stop
   offset="0.12"
   style="stop-color:#3D01F7"
   id="stop451" />
			<stop
   offset="0.27"
   style="stop-color:#3804E7"
   id="stop453" />
			<stop
   offset="0.436"
   style="stop-color:#2F08CE"
   id="stop455" />
			<stop
   offset="0.6136"
   style="stop-color:#230EAA"
   id="stop457" />
			<stop
   offset="0.8005"
   style="stop-color:#14167C"
   id="stop459" />
			<stop
   offset="0.9923"
   style="stop-color:#012045"
   id="stop461" />
			<stop
   offset="1"
   style="stop-color:#002043"
   id="stop463" />
		</linearGradient>
		<polygon
   class="st44"
   points="206.9,389.9 206.8,392 217.4,385.8 217.4,383.8   "
   id="polygon466" />
		
			<linearGradient
   id="SVGID_18_"
   gradientUnits="userSpaceOnUse"
   x1="227.0601"
   y1="74.8925"
   x2="228.9829"
   y2="67.7167"
   gradientTransform="matrix(1 0 0 -1 0 450)">
			<stop
   offset="2.945171e-007"
   style="stop-color:#3F00FC"
   id="stop468" />
			<stop
   offset="0.12"
   style="stop-color:#3D01F7"
   id="stop470" />
			<stop
   offset="0.27"
   style="stop-color:#3804E7"
   id="stop472" />
			<stop
   offset="0.436"
   style="stop-color:#2F08CE"
   id="stop474" />
			<stop
   offset="0.6136"
   style="stop-color:#230EAA"
   id="stop476" />
			<stop
   offset="0.8005"
   style="stop-color:#14167C"
   id="stop478" />
			<stop
   offset="0.9923"
   style="stop-color:#012045"
   id="stop480" />
			<stop
   offset="1"
   style="stop-color:#002043"
   id="stop482" />
		</linearGradient>
		
	</g>
</g>
<g
   class="st46"
   id="g497">
	
		<image
   sodipodi:absref="/home/mauro/Documents/Projects/www/ARCpy/base/assets/img/illustrations/C0168991.png"
   xlink:href="C0168991.png"
   id="image491"
   transform="matrix(1 0 0 1 275 -11)"
   height="328"
   width="32"
   style="overflow:visible;opacity:0.3;">
	</image>
	<g
   id="g495">
		<line
   class="st47"
   x1="285.6"
   y1="-31"
   x2="285.6"
   y2="266.1"
   id="line493" />
	</g>
</g>
</svg>