<?xml version="1.0" encoding="UTF-8" standalone="no"?>
<!-- Generator: Adobe Illustrator 19.0.0, SVG Export Plug-In . SVG Version: 6.00 Build 0)  -->

<svg
   xmlns:dc="http://purl.org/dc/elements/1.1/"
   xmlns:cc="http://creativecommons.org/ns#"
   xmlns:rdf="http://www.w3.org/1999/02/22-rdf-syntax-ns#"
   xmlns:svg="http://www.w3.org/2000/svg"
   xmlns="http://www.w3.org/2000/svg"
   xmlns:sodipodi="http://sodipodi.sourceforge.net/DTD/sodipodi-0.dtd"
   xmlns:inkscape="http://www.inkscape.org/namespaces/inkscape"
   version="1.1"
   id="Layer_1"
   x="0px"
   y="0px"
   viewBox="0 0 1400 980"
   style="enable-background:new 0 0 1400 980;"
   xml:space="preserve"
   sodipodi:docname="solar.svg"
   inkscape:version="0.92.5 (2060ec1f9f, 2020-04-08)"><metadata
   id="metadata213"><rdf:RDF><cc:Work
       rdf:about=""><dc:format>image/svg+xml</dc:format><dc:type
         rdf:resource="http://purl.org/dc/dcmitype/StillImage" /></cc:Work></rdf:RDF></metadata><defs
   id="defs211" /><sodipodi:namedview
   pagecolor="#ffffff"
   bordercolor="#666666"
   borderopacity="1"
   objecttolerance="10"
   gridtolerance="10"
   guidetolerance="10"
   inkscape:pageopacity="0"
   inkscape:pageshadow="2"
   inkscape:window-width="1848"
   inkscape:window-height="1016"
   id="namedview209"
   showgrid="false"
   inkscape:zoom="0.48163265"
   inkscape:cx="922.59813"
   inkscape:cy="588.04553"
   inkscape:window-x="72"
   inkscape:window-y="27"
   inkscape:window-maximized="1"
   inkscape:current-layer="g206" />
<style
   type="text/css"
   id="style2">
	.st0{opacity:8.000000e-002;}
	.st1{fill:none;stroke:#0053FB;stroke-width:2;stroke-miterlimit:10;}
	.st2{fill:#0053FB;}
	.st3{fill:none;}
	.st4{fill-rule:evenodd;clip-rule:evenodd;fill:#0053FB;}
	.st5{fill:#FFFFFF;}
</style>
<g
   class="st0"
   id="g206">
	<g
   id="g22">
		<path
   class="st1"
   d="M1155.6,66.9c19.7-13.4,43.5-21.2,69.2-21.2c68.1,0,123.3,55.2,123.3,123.3s-55.2,123.3-123.3,123.3    s-123.3-55.2-123.3-123.3c0-27,8.7-52,23.5-72.4"
   id="path4" />
		<path
   class="st1"
   d="M1053.8,148.8c10-85.6,82.7-152.1,171-152.1c95.1,0,172.2,77.1,172.2,172.2s-77.1,172.2-172.2,172.2    c-75.8,0-140.1-49-163.1-117"
   id="path6" />
		<path
   class="st1"
   d="M1122.9,384.2C1042.4,346,986.7,264,986.7,169c0-131.5,106.6-238.1,238.1-238.1S1462.9,37.5,1462.9,169    S1356.3,407,1224.8,407c-0.5,0-1.1,0-1.6,0"
   id="path8" />
		<circle
   class="st1"
   cx="1224.8"
   cy="169"
   r="304.3"
   id="circle10" />
		<path
   class="st1"
   d="M854.8,157.2c6.2-199,169.5-358.4,370-358.4c204.4,0,370.2,165.7,370.2,370.2s-165.7,370.2-370.2,370.2    c-186.8,0-341.3-138.4-366.6-318.3"
   id="path12" />
		<path
   class="st1"
   d="M1176.6,650.6C931.9,626.4,740.8,420,740.8,169c0-267.3,216.7-484,484-484s484,216.7,484,484    c0,236.3-169.3,433-393.3,475.5"
   id="path14" />
		<path
   class="st1"
   d="M673.1,424.8C637,347,616.8,260.4,616.8,169c0-335.8,272.2-608,608-608s608,272.2,608,608s-272.2,608-608,608    c-198.4,0-374.6-95-485.6-242.1"
   id="path16" />
		<path
   class="st1"
   d="M813.1,781.9C616.1,649.3,486.6,424.3,486.6,169c0-407.7,330.5-738.3,738.3-738.3s738.3,330.5,738.3,738.3    s-330.5,738.3-738.3,738.3c-122.7,0-238.4-29.9-340.2-82.9"
   id="path18" />
		<path
   class="st1"
   d="M516.1,679.1C412.6,535.6,351.7,359.4,351.7,169c0-482.2,390.9-873.1,873.1-873.1S2098-313.3,2098,169    s-390.9,873.1-873.1,873.1c-247.5,0-471-103-629.9-268.4"
   id="path20" />
	</g>
	<path
   class="st2"
   d="M1225.3,91.3c43,0,77.8,34.8,77.8,77.8c0,43-34.8,77.8-77.8,77.8c-43,0-77.8-34.8-77.8-77.8   C1147.5,126.1,1182.3,91.3,1225.3,91.3L1225.3,91.3z M1225.3,93c-42.2,0-76.2,34.1-76.2,76.2c0,42.2,34,76.2,76.2,76.2   c42,0,76.2-34,76.2-76.2C1301.5,127.1,1267.3,93,1225.3,93L1225.3,93z"
   id="path24" />
	
	
	
	
	
	
	
	
</g>
</svg>